<?xml version="1.0" encoding="UTF-8"?>
<!DOCTYPE svg PUBLIC "-//W3C//DTD SVG 1.1//EN" "http://www.w3.org/Graphics/SVG/1.1/DTD/svg11.dtd">
<svg xmlns="http://www.w3.org/2000/svg" version="1.1" width="500px" height="500px" style="shape-rendering:geometricPrecision; text-rendering:geometricPrecision; image-rendering:optimizeQuality; fill-rule:evenodd; clip-rule:evenodd" xmlns:xlink="http://www.w3.org/1999/xlink">
<g><path style="opacity:0.753" fill="#76817e" d="M 258.5,59.5 C 250.954,59.0384 243.621,59.7051 236.5,61.5C 237.808,60.7677 239.142,59.9344 240.5,59C 246.681,58.1808 252.681,58.3475 258.5,59.5 Z"/></g>
<g><path style="opacity:0.988" fill="#838f8e" d="M 228.5,68.5 C 227.829,69.8471 227.829,71.0138 228.5,72C 226.178,73.5659 224.678,75.7326 224,78.5C 223.501,83.1548 223.334,87.8215 223.5,92.5C 222.35,87.6842 222.184,82.6842 223,77.5C 223.872,73.8193 225.706,70.8193 228.5,68.5 Z"/></g>
<g><path style="opacity:0.49" fill="#b0c1c2" d="M 229.5,104.5 C 231.027,104.427 232.027,105.094 232.5,106.5C 230.973,106.573 229.973,105.906 229.5,104.5 Z"/></g>
<g><path style="opacity:1" fill="#3f4f53" d="M 258.5,59.5 C 274.111,66.1191 279.944,77.7858 276,94.5C 273.062,102.438 267.728,108.104 260,111.5C 259.333,119.167 259.333,126.833 260,134.5C 274.421,135.49 288.921,135.824 303.5,135.5C 307.9,137.104 312.566,137.771 317.5,137.5C 318.833,137.5 320.167,137.5 321.5,137.5C 323.438,139.163 325.772,139.829 328.5,139.5C 361.553,149.384 383.719,170.717 395,203.5C 399.343,205.637 403.843,207.304 408.5,208.5C 409.539,210.531 411.205,211.864 413.5,212.5C 416.918,215.439 419.418,219.106 421,223.5C 421.667,244.167 421.667,264.833 421,285.5C 419.055,290.557 416.221,295.057 412.5,299C 407.433,301.77 402.1,303.936 396.5,305.5C 389.415,327.841 376.749,346.341 358.5,361C 353.545,364.643 348.212,367.476 342.5,369.5C 340.973,369.427 339.973,370.094 339.5,371.5C 328.699,376.263 317.366,379.096 305.5,380C 271.833,380.333 238.167,380.667 204.5,381C 189.833,391.333 175.167,401.667 160.5,412C 156.459,412.827 152.459,412.66 148.5,411.5C 146.145,410.478 144.478,408.812 143.5,406.5C 144.15,391.129 143.484,376.129 141.5,361.5C 121.773,347.601 108.94,328.934 103,305.5C 90.62,304.449 82.2866,298.116 78,286.5C 77.3333,265.5 77.3333,244.5 78,223.5C 82.3538,211.651 90.8538,205.318 103.5,204.5C 105.062,200.53 106.562,196.53 108,192.5C 109.049,189.813 110.549,187.48 112.5,185.5C 114.076,183.428 115.909,181.428 118,179.5C 118.49,178.207 118.657,176.873 118.5,175.5C 123.112,168.222 128.779,161.888 135.5,156.5C 138.049,155.491 140.715,154.658 143.5,154C 147.119,149.865 151.453,146.698 156.5,144.5C 157.749,142.864 159.416,141.697 161.5,141C 167.75,139.082 174.083,137.416 180.5,136C 200.164,135.5 219.831,135.333 239.5,135.5C 239.666,127.493 239.5,119.493 239,111.5C 236.313,110.418 234.146,108.751 232.5,106.5C 232.027,105.094 231.027,104.427 229.5,104.5C 228.504,104.586 227.671,104.252 227,103.5C 224.945,100.112 223.778,96.4458 223.5,92.5C 223.334,87.8215 223.501,83.1548 224,78.5C 224.678,75.7326 226.178,73.5659 228.5,72C 227.829,71.0138 227.829,69.8471 228.5,68.5C 230.304,65.2522 232.97,62.9189 236.5,61.5C 243.621,59.7051 250.954,59.0384 258.5,59.5 Z"/></g>
<g><path style="opacity:0.606" fill="#93a39f" d="M 303.5,135.5 C 308.391,135.532 313.057,136.199 317.5,137.5C 312.566,137.771 307.9,137.104 303.5,135.5 Z"/></g>
<g><path style="opacity:0.424" fill="#a2a9aa" d="M 321.5,137.5 C 324.067,137.721 326.401,138.388 328.5,139.5C 325.772,139.829 323.438,139.163 321.5,137.5 Z"/></g>
<g><path style="opacity:0.98" fill="#707d7b" d="M 156.5,144.5 C 151.453,146.698 147.119,149.865 143.5,154C 140.715,154.658 138.049,155.491 135.5,156.5C 141.505,150.844 148.505,146.844 156.5,144.5 Z"/></g>
<g><path style="opacity:1" fill="#e9dce5" d="M 373.5,206.5 C 373.317,209.028 372.983,211.528 372.5,214C 373.763,217.058 374.763,220.225 375.5,223.5C 376.666,244.492 376.833,265.492 376,286.5C 375.586,286.957 375.086,287.291 374.5,287.5C 373.355,266.514 372.521,245.514 372,224.5C 371.586,224.043 371.086,223.709 370.5,223.5C 369.833,244.833 369.167,266.167 368.5,287.5C 367.501,276.854 367.168,266.187 367.5,255.5C 364.833,255.5 362.167,255.5 359.5,255.5C 359.5,256.5 359.5,257.5 359.5,258.5C 356.833,258.5 354.167,258.5 351.5,258.5C 351.5,257.5 351.5,256.5 351.5,255.5C 348.833,255.5 346.167,255.5 343.5,255.5C 343.5,256.5 343.5,257.5 343.5,258.5C 340.833,258.5 338.167,258.5 335.5,258.5C 335.5,262.833 335.5,267.167 335.5,271.5C 340.833,271.5 346.167,271.5 351.5,271.5C 351.5,276.833 351.5,282.167 351.5,287.5C 346.167,287.5 340.833,287.5 335.5,287.5C 335.5,292.833 335.5,298.167 335.5,303.5C 324.448,303.189 313.448,303.522 302.5,304.5C 301.692,304.192 301.025,303.692 300.5,303C 302.087,300.135 301.42,297.968 298.5,296.5C 296.289,297.193 295.955,298.359 297.5,300C 294.499,304.708 292.832,304.542 292.5,299.5C 290.423,301.082 288.09,302.082 285.5,302.5C 288.842,299.491 291.842,296.157 294.5,292.5C 296.959,291.126 297.959,288.96 297.5,286C 297.333,284.5 297.167,283 297,281.5C 296.617,280.944 296.117,280.611 295.5,280.5C 295.586,279.504 295.252,278.671 294.5,278C 291.5,277.333 288.5,277.333 285.5,278C 281.3,282.699 276.966,287.199 272.5,291.5C 250.46,302.674 231.46,299.008 215.5,280.5C 210.324,278.541 205.99,279.541 202.5,283.5C 202.297,281.61 202.963,280.11 204.5,279C 207.482,278.502 210.482,278.335 213.5,278.5C 213.719,277.325 213.386,276.325 212.5,275.5C 210.362,274.595 208.195,273.595 206,272.5C 205.833,272.167 205.667,271.833 205.5,271.5C 206.667,271.167 207.833,270.833 209,270.5C 212.464,272.612 215.964,274.779 219.5,277C 220.793,277.49 222.127,277.657 223.5,277.5C 223.719,276.325 223.386,275.325 222.5,274.5C 215.946,272.242 216.279,270.908 223.5,270.5C 223.5,268.167 223.5,265.833 223.5,263.5C 219.554,263.556 215.721,262.889 212,261.5C 209.78,261.545 208.28,262.545 207.5,264.5C 202.5,265.5 197.5,266.5 192.5,267.5C 188.194,266.507 183.861,265.673 179.5,265C 174.9,260.968 169.9,260.468 164.5,263.5C 164.5,262.5 164.5,261.5 164.5,260.5C 165.5,260.5 166.5,260.5 167.5,260.5C 167.336,257.252 166.336,254.252 164.5,251.5C 163.365,253.707 162.699,256.04 162.5,258.5C 158.833,258.5 155.167,258.5 151.5,258.5C 151.5,259.5 151.5,260.5 151.5,261.5C 148.833,261.5 146.167,261.5 143.5,261.5C 143.5,263.167 143.5,264.833 143.5,266.5C 140.833,266.5 138.167,266.5 135.5,266.5C 135.785,268.288 135.452,269.955 134.5,271.5C 133.059,268.275 133.393,265.275 135.5,262.5C 132.914,261.52 130.247,261.187 127.5,261.5C 127.762,260.022 127.429,258.689 126.5,257.5C 125.167,267.167 125.167,276.833 126.5,286.5C 128.024,287.527 128.691,289.027 128.5,291C 128.129,293.856 127.629,296.689 127,299.5C 126.884,295.01 125.55,291.01 123,287.5C 122.83,276.992 122.33,266.659 121.5,256.5C 121.333,242.829 121.5,229.163 122,215.5C 129.347,184.486 148.513,164.986 179.5,157C 223.134,155.366 266.801,155.032 310.5,156C 339.509,160.018 360.343,175.185 373,201.5C 373.494,203.134 373.66,204.801 373.5,206.5 Z"/></g>
<g><path style="opacity:0.984" fill="#75827f" d="M 118.5,175.5 C 118.657,176.873 118.49,178.207 118,179.5C 115.909,181.428 114.076,183.428 112.5,185.5C 113.498,181.495 115.498,178.161 118.5,175.5 Z"/></g>
<g><path style="opacity:0.753" fill="#a9b1af" d="M 408.5,208.5 C 410.754,209.124 412.421,210.457 413.5,212.5C 411.205,211.864 409.539,210.531 408.5,208.5 Z"/></g>
<g><path style="opacity:1" fill="#3d4c51" d="M 298.5,215.5 C 311.774,213.055 321.608,217.722 328,229.5C 330.506,250.325 321.339,260.158 300.5,259C 292.667,256.5 287.5,251.333 285,243.5C 283.316,235.549 284.816,228.382 289.5,222C 292.567,219.812 295.567,217.645 298.5,215.5 Z"/></g>
<g><path style="opacity:1" fill="#3d4d51" d="M 185.5,215.5 C 198.909,213.009 208.743,217.675 215,229.5C 217.38,250.787 207.88,260.62 186.5,259C 170.759,251.019 166.926,239.186 175,223.5C 178.299,220.449 181.799,217.782 185.5,215.5 Z"/></g>
<g><path style="opacity:1" fill="#e5dbe3" d="M 373.5,206.5 C 374.117,206.611 374.617,206.944 375,207.5C 375.452,210.877 376.118,214.211 377,217.5C 377.667,243.833 377.667,270.167 377,296.5C 368.366,331.132 346.533,352.298 311.5,360C 269.833,360.667 228.167,360.667 186.5,360C 151.439,352.605 129.939,331.439 122,296.5C 121.5,283.171 121.333,269.837 121.5,256.5C 122.33,266.659 122.83,276.992 123,287.5C 125.55,291.01 126.884,295.01 127,299.5C 127.629,296.689 128.129,293.856 128.5,291C 128.691,289.027 128.024,287.527 126.5,286.5C 125.167,276.833 125.167,267.167 126.5,257.5C 127.429,258.689 127.762,260.022 127.5,261.5C 130.247,261.187 132.914,261.52 135.5,262.5C 133.393,265.275 133.059,268.275 134.5,271.5C 135.452,269.955 135.785,268.288 135.5,266.5C 138.167,266.5 140.833,266.5 143.5,266.5C 143.5,264.833 143.5,263.167 143.5,261.5C 146.167,261.5 148.833,261.5 151.5,261.5C 151.5,260.5 151.5,259.5 151.5,258.5C 155.167,258.5 158.833,258.5 162.5,258.5C 162.699,256.04 163.365,253.707 164.5,251.5C 166.336,254.252 167.336,257.252 167.5,260.5C 166.5,260.5 165.5,260.5 164.5,260.5C 164.5,261.5 164.5,262.5 164.5,263.5C 169.9,260.468 174.9,260.968 179.5,265C 183.861,265.673 188.194,266.507 192.5,267.5C 197.5,266.5 202.5,265.5 207.5,264.5C 208.28,262.545 209.78,261.545 212,261.5C 215.721,262.889 219.554,263.556 223.5,263.5C 223.5,265.833 223.5,268.167 223.5,270.5C 216.279,270.908 215.946,272.242 222.5,274.5C 223.386,275.325 223.719,276.325 223.5,277.5C 222.127,277.657 220.793,277.49 219.5,277C 215.964,274.779 212.464,272.612 209,270.5C 207.833,270.833 206.667,271.167 205.5,271.5C 205.667,271.833 205.833,272.167 206,272.5C 208.195,273.595 210.362,274.595 212.5,275.5C 213.386,276.325 213.719,277.325 213.5,278.5C 210.482,278.335 207.482,278.502 204.5,279C 202.963,280.11 202.297,281.61 202.5,283.5C 201.198,286.107 201.364,288.773 203,291.5C 207.052,296.093 211.552,300.093 216.5,303.5C 222.228,308.263 228.895,311.43 236.5,313C 247.991,314.123 259.324,313.457 270.5,311C 271.056,310.617 271.389,310.117 271.5,309.5C 276.62,308.039 281.287,305.706 285.5,302.5C 288.09,302.082 290.423,301.082 292.5,299.5C 292.832,304.542 294.499,304.708 297.5,300C 295.955,298.359 296.289,297.193 298.5,296.5C 301.42,297.968 302.087,300.135 300.5,303C 301.025,303.692 301.692,304.192 302.5,304.5C 313.448,303.522 324.448,303.189 335.5,303.5C 335.5,298.167 335.5,292.833 335.5,287.5C 340.833,287.5 346.167,287.5 351.5,287.5C 351.5,282.167 351.5,276.833 351.5,271.5C 346.167,271.5 340.833,271.5 335.5,271.5C 335.5,267.167 335.5,262.833 335.5,258.5C 338.167,258.5 340.833,258.5 343.5,258.5C 343.5,257.5 343.5,256.5 343.5,255.5C 346.167,255.5 348.833,255.5 351.5,255.5C 351.5,256.5 351.5,257.5 351.5,258.5C 354.167,258.5 356.833,258.5 359.5,258.5C 359.5,257.5 359.5,256.5 359.5,255.5C 362.167,255.5 364.833,255.5 367.5,255.5C 367.168,266.187 367.501,276.854 368.5,287.5C 369.167,266.167 369.833,244.833 370.5,223.5C 371.086,223.709 371.586,224.043 372,224.5C 372.521,245.514 373.355,266.514 374.5,287.5C 375.086,287.291 375.586,286.957 376,286.5C 376.833,265.492 376.666,244.492 375.5,223.5C 374.763,220.225 373.763,217.058 372.5,214C 372.983,211.528 373.317,209.028 373.5,206.5 Z"/></g>
<g><path style="opacity:1" fill="#ed7955" d="M 295.5,280.5 C 289.92,277.035 285.586,278.202 282.5,284C 283.289,285.626 284.289,287.126 285.5,288.5C 283.511,289.615 281.678,289.282 280,287.5C 278.189,288.424 278.355,289.257 280.5,290C 279.151,290.772 278.318,291.939 278,293.5C 277.517,292.552 277.351,291.552 277.5,290.5C 275.784,290.629 274.117,290.962 272.5,291.5C 276.966,287.199 281.3,282.699 285.5,278C 288.5,277.333 291.5,277.333 294.5,278C 295.252,278.671 295.586,279.504 295.5,280.5 Z"/></g>
<g><path style="opacity:1" fill="#e58a71" d="M 295.5,280.5 C 296.117,280.611 296.617,280.944 297,281.5C 297.167,283 297.333,284.5 297.5,286C 297.959,288.96 296.959,291.126 294.5,292.5C 296.598,288.654 296.931,284.654 295.5,280.5 Z"/></g>
<g><path style="opacity:1" fill="#f47444" d="M 295.5,280.5 C 296.931,284.654 296.598,288.654 294.5,292.5C 291.842,296.157 288.842,299.491 285.5,302.5C 281.287,305.706 276.62,308.039 271.5,309.5C 260.38,312.382 249.047,313.215 237.5,312C 232.856,309.784 228.023,307.95 223,306.5C 221.526,304.084 219.36,303.084 216.5,303.5C 211.552,300.093 207.052,296.093 203,291.5C 201.364,288.773 201.198,286.107 202.5,283.5C 205.99,279.541 210.324,278.541 215.5,280.5C 231.46,299.008 250.46,302.674 272.5,291.5C 274.117,290.962 275.784,290.629 277.5,290.5C 277.351,291.552 277.517,292.552 278,293.5C 278.318,291.939 279.151,290.772 280.5,290C 278.355,289.257 278.189,288.424 280,287.5C 281.678,289.282 283.511,289.615 285.5,288.5C 284.289,287.126 283.289,285.626 282.5,284C 285.586,278.202 289.92,277.035 295.5,280.5 Z"/></g>
<g><path style="opacity:1" fill="#e38161" d="M 216.5,303.5 C 219.36,303.084 221.526,304.084 223,306.5C 228.023,307.95 232.856,309.784 237.5,312C 249.047,313.215 260.38,312.382 271.5,309.5C 271.389,310.117 271.056,310.617 270.5,311C 259.324,313.457 247.991,314.123 236.5,313C 228.895,311.43 222.228,308.263 216.5,303.5 Z"/></g>
<g><path style="opacity:0.004" fill="#d3d7d7" d="M 342.5,369.5 C 342.027,370.906 341.027,371.573 339.5,371.5C 339.973,370.094 340.973,369.427 342.5,369.5 Z"/></g>
<g><path style="opacity:0.408" fill="#727d79" d="M 141.5,361.5 C 143.484,376.129 144.15,391.129 143.5,406.5C 142.818,391.598 142.152,376.598 141.5,361.5 Z"/></g>
</svg>
