<?xml version="1.0" encoding="UTF-8"?>
<svg width="32" height="32" viewBox="0 0 32 32" fill="none" xmlns="http://www.w3.org/2000/svg">
  <!-- Favicon version of the L logo -->
  <rect width="32" height="32" rx="8" fill="#F5FFFA"/>
  <!-- L shape -->
  <path d="M8 5C8 4.44772 8.44772 4 9 4H13C13.5523 4 14 4.44772 14 5V22C14 22.5523 13.5523 23 13 23H9C8.44772 23 8 22.5523 8 22V5Z" fill="#333333"/>
  <path d="M8 19C8 18.4477 8.44772 18 9 18H23C23.5523 18 24 18.4477 24 19V22C24 22.5523 23.5523 23 23 23H9C8.44772 23 8 22.5523 8 22V19Z" fill="#333333"/>
  
  <!-- Orange accent corner -->
  <path d="M14 18H20C20.5523 18 21 18.4477 21 19V23H14V18Z" fill="#FFA500"/>
</svg>
