<?xml version="1.0" encoding="UTF-8"?>
<svg width="180" height="80" viewBox="0 0 180 80" fill="none" xmlns="http://www.w3.org/2000/svg">
  <!-- Full LynqIt logo for main usage -->
  <g id="LynqItLogo">
    <!-- L letter -->
    <path d="M20 15C20 12.2386 22.2386 10 25 10H35C37.7614 10 40 12.2386 40 15V55C40 57.7614 37.7614 60 35 60H25C22.2386 60 20 57.7614 20 55V15Z" fill="#333333"/>
    <path d="M20 50C20 47.2386 22.2386 45 25 45H60C62.7614 45 65 47.2386 65 50V55C65 57.7614 62.7614 60 60 60H25C22.2386 60 20 57.7614 20 55V50Z" fill="#333333"/>
    
    <!-- Orange accent corner on L -->
    <path d="M40 45H55C57.7614 45 60 47.2386 60 50V60H40V45Z" fill="#FFA500"/>
    
    <!-- "ynq" letters -->
    <path d="M70 20C70 15 73 10 78 10C83 10 87 13 87 20V60H78V25C78 23 77 20 74 20C71 20 70 23 70 25V60H62V20H70Z" fill="#333333"/>
    <path d="M90 15C90 12.5 92 10 95 10C98 10 100 12.5 100 15V40C100 47 93 50 88 50C83 50 76 47 76 40H85C85 42 86.5 43 88 43C89.5 43 91 42 91 40V15H90Z" fill="#333333"/>
    <path d="M103 35C103 20 113 10 123 10C133 10 143 20 143 35C143 50 133 60 123 60C113 60 103 50 103 35ZM113 35C113 45 118 50 123 50C128 50 133 45 133 35C133 25 128 20 123 20C118 20 113 25 113 35Z" fill="#333333"/>
    
    <!-- "It" letters -->
    <path d="M146 15C146 12.5 148 10 151 10C154 10 156 12.5 156 15V55C156 57.5 154 60 151 60C148 60 146 57.5 146 55V15Z" fill="#FFA500"/>
    <path d="M160 15C160 12.5 162 10 165 10H175C177 10 180 12.5 180 15C180 17.5 177 20 175 20H170V55C170 57.5 168 60 165 60C162 60 160 57.5 160 55V20V15Z" fill="#FFA500"/>
  </g>
</svg>
