<?xml version="1.0" encoding="UTF-8"?>
<svg width="60" height="60" viewBox="0 0 60 60" fill="none" xmlns="http://www.w3.org/2000/svg">
  <!-- Compact L logo for avatar/favicon usage -->
  <rect width="60" height="60" rx="12" fill="#F5FFFA"/>
  <!-- L shape -->
  <path d="M15 10C15 8.34315 16.3431 7 18 7H25C26.6569 7 28 8.34315 28 10V40C28 41.6569 26.6569 43 25 43H18C16.3431 43 15 41.6569 15 40V10Z" fill="#333333"/>
  <path d="M15 35C15 33.3431 16.3431 32 18 32H43C44.6569 32 46 33.3431 46 35V40C46 41.6569 44.6569 43 43 43H18C16.3431 43 15 41.6569 15 40V35Z" fill="#333333"/>
  
  <!-- Orange accent corner -->
  <path d="M28 32H40C41.6569 32 43 33.3431 43 35V43H28V32Z" fill="#FFA500"/>
</svg>